# xmcd
#
# Track frame offsets: 
#        150
#        13966
#        32816
#        48152
#        68699
#        87573
#        100645
#        114898
#
# Disc length: 1786 seconds
#
# Revision: 0
# Processed by: cddbd v1.5.2PL0 Copyright (c) Steve Scherf et al.
# Submitted via: ExactAudioCopyFreeDBPlugin 1.0
#
DISCID=5c06f808
DTITLE=Blues Toulouse - Twisted Existence
DYEAR=1999
DGENRE=Blues
TTITLE0=Feel So Good, Feel So Bad
TTITLE1=Love Left Behind
TTITLE2=Twisted Existence
TTITLE3=She's Gone
TTITLE4=Nothing To You
TTITLE5=Never Let a Woman
TTITLE6=Everything About You
TTITLE7=Love Left Behind (Reprise)
EXTD=
EXTT0=
EXTT1=
EXTT2=
EXTT3=
EXTT4=
EXTT5=
EXTT6=
EXTT7=
PLAYORDER=
